<svg width="220" height="53" viewBox="0 0 220 53" fill="none" xmlns="http://www.w3.org/2000/svg">
<path d="M0.974507 41.882L12.5382 13.1567H17.0737L28.5965 41.882H22.6717L13.764 18.3052H15.807L6.77677 41.882H0.974507ZM7.10366 36.5292V31.871H22.5491V36.5292H7.10366ZM36.0754 31.2172V26.6817H42.7357C43.6074 26.6817 44.3974 26.5046 45.1056 26.1505C45.8139 25.7963 46.3723 25.2924 46.7809 24.6386C47.1896 23.9576 47.3939 23.1404 47.3939 22.187C47.3939 21.2608 47.1896 20.4572 46.7809 19.7762C46.3723 19.0951 45.8139 18.5776 45.1056 18.2234C44.3974 17.8693 43.6074 17.6923 42.7357 17.6923H36.0754V13.1567H43.3078C45.1329 13.1567 46.7673 13.5244 48.2111 14.2599C49.6821 14.9954 50.8398 16.0442 51.6843 17.4062C52.5287 18.741 52.951 20.3346 52.951 22.187C52.951 24.0393 52.5287 25.6465 51.6843 27.0086C50.8398 28.3434 49.6821 29.3785 48.2111 30.114C46.7673 30.8495 45.1329 31.2172 43.3078 31.2172H36.0754ZM31.9893 41.882V13.1567H37.5464V41.882H31.9893ZM60.975 31.2172V26.6817H67.6354C68.5071 26.6817 69.2971 26.5046 70.0053 26.1505C70.7136 25.7963 71.272 25.2924 71.6806 24.6386C72.0892 23.9576 72.2935 23.1404 72.2935 22.187C72.2935 21.2608 72.0892 20.4572 71.6806 19.7762C71.272 19.0951 70.7136 18.5776 70.0053 18.2234C69.2971 17.8693 68.5071 17.6923 67.6354 17.6923H60.975V13.1567H68.2074C70.0326 13.1567 71.667 13.5244 73.1107 14.2599C74.5817 14.9954 75.7395 16.0442 76.5839 17.4062C77.4284 18.741 77.8506 20.3346 77.8506 22.187C77.8506 24.0393 77.4284 25.6465 76.5839 27.0086C75.7395 28.3434 74.5817 29.3785 73.1107 30.114C71.667 30.8495 70.0326 31.2172 68.2074 31.2172H60.975ZM56.8889 41.882V13.1567H62.446V41.882H56.8889ZM81.4959 41.882V22.1461H86.8487V41.882H81.4959ZM86.8487 30.9721L84.7647 29.5828C85.0099 27.1584 85.7182 25.2515 86.8895 23.8623C88.0609 22.4457 89.7498 21.7375 91.9563 21.7375C92.9097 21.7375 93.7678 21.9009 94.5305 22.2278C95.2933 22.5275 95.9879 23.0314 96.6144 23.7397L93.2638 27.5806C92.9642 27.2537 92.5964 27.0086 92.1606 26.8451C91.752 26.6817 91.2753 26.5999 90.7305 26.5999C89.5863 26.5999 88.6465 26.9677 87.911 27.7032C87.2028 28.4115 86.8487 29.5011 86.8487 30.9721ZM107.375 42.2906C105.305 42.2906 103.466 41.8547 101.859 40.983C100.251 40.0841 98.9712 38.8582 98.0178 37.3055C97.0916 35.7528 96.6285 33.9822 96.6285 31.9936C96.6285 30.0323 97.0779 28.2889 97.9769 26.7634C98.9031 25.2107 100.156 23.9848 101.736 23.0859C103.316 22.1597 105.073 21.6966 107.007 21.6966C108.914 21.6966 110.589 22.1325 112.033 23.0042C113.504 23.8486 114.648 25.02 115.465 26.5182C116.31 27.9892 116.732 29.6645 116.732 31.5441C116.732 31.8983 116.705 32.266 116.65 32.6474C116.623 33.0015 116.555 33.4101 116.446 33.8732L99.8565 33.9141V29.9097L113.954 29.8688L111.788 31.5441C111.733 30.3728 111.515 29.3921 111.134 28.6021C110.78 27.8122 110.249 27.2129 109.541 26.8043C108.86 26.3684 108.015 26.1505 107.007 26.1505C105.945 26.1505 105.019 26.3956 104.229 26.886C103.439 27.3491 102.826 28.0165 102.39 28.8882C101.981 29.7326 101.777 30.7405 101.777 31.9119C101.777 33.1105 101.995 34.1592 102.431 35.0582C102.894 35.9299 103.548 36.6109 104.392 37.1012C105.237 37.5643 106.217 37.7959 107.334 37.7959C108.342 37.7959 109.255 37.6324 110.072 37.3055C110.889 36.9514 111.597 36.4338 112.197 35.7528L115.343 38.8991C114.389 40.016 113.218 40.8604 111.829 41.4325C110.467 42.0045 108.982 42.2906 107.375 42.2906ZM129.359 42.2906C127.343 42.2906 125.531 41.8411 123.924 40.9422C122.317 40.0432 121.05 38.8174 120.124 37.2647C119.198 35.7119 118.735 33.9685 118.735 32.0345C118.735 30.0731 119.198 28.3161 120.124 26.7634C121.05 25.2107 122.317 23.9848 123.924 23.0859C125.559 22.1597 127.37 21.6966 129.359 21.6966C130.911 21.6966 132.342 21.9827 133.649 22.5547C134.957 23.1268 136.087 23.944 137.041 25.0064L133.608 28.4796C133.091 27.9075 132.464 27.4717 131.729 27.172C131.02 26.8724 130.23 26.7225 129.359 26.7225C128.378 26.7225 127.493 26.9541 126.703 27.4172C125.94 27.853 125.327 28.4659 124.864 29.2559C124.428 30.0187 124.21 30.9312 124.21 31.9936C124.21 33.0287 124.428 33.9549 124.864 34.7721C125.327 35.5621 125.94 36.1887 126.703 36.6518C127.493 37.0876 128.378 37.3055 129.359 37.3055C130.258 37.3055 131.061 37.1557 131.77 36.8561C132.505 36.5292 133.132 36.0661 133.649 35.4668L137.122 38.94C136.114 40.0296 134.957 40.8604 133.649 41.4325C132.342 42.0045 130.911 42.2906 129.359 42.2906ZM140.154 41.882V22.1461H145.547V41.882H140.154ZM142.851 18.9589C141.979 18.9589 141.257 18.6729 140.685 18.1009C140.113 17.5016 139.827 16.7661 139.827 15.8944C139.827 15.0499 140.113 14.328 140.685 13.7287C141.257 13.1294 141.979 12.8298 142.851 12.8298C143.749 12.8298 144.471 13.1294 145.016 13.7287C145.588 14.328 145.874 15.0499 145.874 15.8944C145.874 16.7661 145.588 17.5016 145.016 18.1009C144.471 18.6729 143.749 18.9589 142.851 18.9589ZM158.543 42.2906C156.745 42.2906 155.124 41.8411 153.681 40.9422C152.237 40.0432 151.106 38.8174 150.289 37.2647C149.472 35.7119 149.063 33.9685 149.063 32.0345C149.063 30.0731 149.472 28.3161 150.289 26.7634C151.106 25.2107 152.237 23.9848 153.681 23.0859C155.124 22.187 156.745 21.7375 158.543 21.7375C159.96 21.7375 161.226 22.0235 162.343 22.5956C163.46 23.1676 164.345 23.9712 164.999 25.0064C165.68 26.0143 166.048 27.1584 166.102 28.4387V35.5485C166.048 36.8561 165.68 38.0138 164.999 39.0217C164.345 40.0296 163.46 40.8332 162.343 41.4325C161.226 42.0045 159.96 42.2906 158.543 42.2906ZM159.524 37.3464C161.022 37.3464 162.234 36.8561 163.16 35.8754C164.087 34.8675 164.55 33.5736 164.55 31.9936C164.55 30.9585 164.332 30.0459 163.896 29.2559C163.487 28.4387 162.902 27.8122 162.139 27.3763C161.403 26.9132 160.532 26.6817 159.524 26.6817C158.543 26.6817 157.671 26.9132 156.909 27.3763C156.173 27.8122 155.587 28.4387 155.152 29.2559C154.743 30.0459 154.539 30.9585 154.539 31.9936C154.539 33.056 154.743 33.9958 155.152 34.813C155.587 35.603 156.173 36.2295 156.909 36.6926C157.671 37.1285 158.543 37.3464 159.524 37.3464ZM164.264 41.882V36.57L165.122 31.7484L164.264 27.0086V22.1461H169.576V41.882H164.264ZM177.212 41.882V13.933H182.565V41.882H177.212ZM172.595 26.8451V22.1461H187.182V26.8451H172.595ZM199.153 42.2906C197.082 42.2906 195.243 41.8547 193.636 40.983C192.029 40.0841 190.749 38.8582 189.795 37.3055C188.869 35.7528 188.406 33.9822 188.406 31.9936C188.406 30.0323 188.856 28.2889 189.754 26.7634C190.681 25.2107 191.934 23.9848 193.514 23.0859C195.094 22.1597 196.851 21.6966 198.785 21.6966C200.692 21.6966 202.367 22.1325 203.811 23.0042C205.282 23.8486 206.426 25.02 207.243 26.5182C208.087 27.9892 208.51 29.6645 208.51 31.5441C208.51 31.8983 208.482 32.266 208.428 32.6474C208.401 33.0015 208.333 33.4101 208.224 33.8732L191.634 33.9141V29.9097L205.731 29.8688L203.566 31.5441C203.511 30.3728 203.293 29.3921 202.912 28.6021C202.558 27.8122 202.026 27.2129 201.318 26.8043C200.637 26.3684 199.793 26.1505 198.785 26.1505C197.722 26.1505 196.796 26.3956 196.006 26.886C195.216 27.3491 194.603 28.0165 194.167 28.8882C193.759 29.7326 193.555 30.7405 193.555 31.9119C193.555 33.1105 193.772 34.1592 194.208 35.0582C194.671 35.9299 195.325 36.6109 196.17 37.1012C197.014 37.5643 197.995 37.7959 199.112 37.7959C200.12 37.7959 201.032 37.6324 201.849 37.3055C202.667 36.9514 203.375 36.4338 203.974 35.7528L207.12 38.8991C206.167 40.016 204.996 40.8604 203.606 41.4325C202.244 42.0045 200.76 42.2906 199.153 42.2906Z" fill="#00C567"/>
<path d="M201.277 17.9691L206.562 23.0322L214.102 15.8085L217.132 18.7109V11.1163H209.205L212.234 14.0187L206.562 19.4526L201.277 14.3896L191.095 24.1448L192.963 25.9346L201.277 17.9691Z" fill="#00C567"/>
</svg>
