<svg width="14" height="14" viewBox="0 0 20 20" fill="none" xmlns="http://www.w3.org/2000/svg">
<path d="M9.99997 19C11.2031 19.0001 12.3941 18.7589 13.5024 18.2908C14.6107 17.8226 15.614 17.137 16.4528 16.2744C17.2915 15.4119 17.9489 14.3899 18.3859 13.2689C18.8229 12.1479 19.0307 10.9507 18.997 9.74801C17.7383 10.6241 16.2268 11.0626 14.6947 10.9961C13.1626 10.9297 11.6947 10.3619 10.5166 9.38012C9.33853 8.39833 8.51546 7.05685 8.17389 5.56183C7.83232 4.06681 7.99115 2.50099 8.62597 1.10501C6.38419 1.45048 4.35553 2.62968 2.94586 4.40668C1.53619 6.18368 0.849486 8.42743 1.02313 10.689C1.19678 12.9506 2.21797 15.0632 3.8824 16.6042C5.54683 18.1452 7.73173 19.0008 9.99997 19Z" stroke="#F0F1F1" stroke-width="1.5" stroke-linecap="round" stroke-linejoin="round"/>
</svg>
