<svg width="293" height="42" viewBox="0 0 293 42" fill="none" xmlns="http://www.w3.org/2000/svg">
<path d="M0.150554 41L16.4309 0.558041H22.8165L39.0393 41H30.6978L18.1567 7.80653H21.0331L8.31948 41H0.150554ZM8.77971 33.4639V26.9057H30.5252V33.4639H8.77971ZM49.5686 25.9853V19.5997H58.9456C60.1729 19.5997 61.2851 19.3504 62.2822 18.8518C63.2794 18.3533 64.0656 17.6438 64.6409 16.7233C65.2162 15.7645 65.5038 14.614 65.5038 13.2717C65.5038 11.9677 65.2162 10.8363 64.6409 9.87752C64.0656 8.91873 63.2794 8.19004 62.2822 7.69147C61.2851 7.1929 60.1729 6.94361 58.9456 6.94361H49.5686V0.558041H59.751C62.3206 0.558041 64.6217 1.07579 66.6543 2.11129C68.7253 3.14678 70.3553 4.62333 71.5442 6.54092C72.7331 8.42016 73.3276 10.6637 73.3276 13.2717C73.3276 15.8796 72.7331 18.1423 71.5442 20.0599C70.3553 21.9392 68.7253 23.3965 66.6543 24.432C64.6217 25.4675 62.3206 25.9853 59.751 25.9853H49.5686ZM43.8159 41V0.558041H51.6396V41H43.8159ZM84.6246 25.9853V19.5997H94.0016C95.2288 19.5997 96.341 19.3504 97.3382 18.8518C98.3353 18.3533 99.1215 17.6438 99.6968 16.7233C100.272 15.7645 100.56 14.614 100.56 13.2717C100.56 11.9677 100.272 10.8363 99.6968 9.87752C99.1215 8.91873 98.3353 8.19004 97.3382 7.69147C96.341 7.1929 95.2288 6.94361 94.0016 6.94361H84.6246V0.558041H94.807C97.3765 0.558041 99.6776 1.07579 101.71 2.11129C103.781 3.14678 105.411 4.62333 106.6 6.54092C107.789 8.42016 108.383 10.6637 108.383 13.2717C108.383 15.8796 107.789 18.1423 106.6 20.0599C105.411 21.9392 103.781 23.3965 101.71 24.432C99.6776 25.4675 97.3765 25.9853 94.807 25.9853H84.6246ZM78.8718 41V0.558041H86.6956V41H78.8718ZM113.516 41V13.2141H121.052V41H113.516ZM121.052 25.6401L118.118 23.6842C118.463 20.2709 119.46 17.5862 121.109 15.6303C122.758 13.636 125.136 12.6389 128.243 12.6389C129.585 12.6389 130.793 12.869 131.867 13.3292C132.941 13.7511 133.919 14.4606 134.801 15.4577L130.084 20.8653C129.662 20.4051 129.144 20.0599 128.53 19.8298C127.955 19.5997 127.284 19.4846 126.517 19.4846C124.906 19.4846 123.583 20.0024 122.547 21.0379C121.55 22.035 121.052 23.5691 121.052 25.6401ZM149.95 41.5753C147.036 41.5753 144.447 40.9616 142.184 39.7344C139.921 38.4688 138.119 36.743 136.777 34.5569C135.473 32.3708 134.821 29.878 134.821 27.0783C134.821 24.317 135.453 21.8625 136.719 19.7148C138.023 17.5287 139.787 15.8029 142.012 14.5373C144.236 13.2333 146.71 12.5813 149.433 12.5813C152.117 12.5813 154.476 13.195 156.509 14.4222C158.58 15.6111 160.19 17.2602 161.341 19.3696C162.53 21.4406 163.124 23.7992 163.124 26.4455C163.124 26.9441 163.086 27.4618 163.009 27.9987C162.971 28.4973 162.875 29.0726 162.722 29.7246L139.365 29.7821V24.1444L159.212 24.0869L156.163 26.4455C156.087 24.7964 155.78 23.4157 155.243 22.3035C154.744 21.1913 153.997 20.3476 152.999 19.7723C152.041 19.1587 150.852 18.8518 149.433 18.8518C147.937 18.8518 146.633 19.197 145.521 19.8873C144.409 20.5393 143.546 21.4789 142.932 22.7062C142.357 23.8951 142.069 25.3141 142.069 26.9632C142.069 28.6507 142.376 30.1273 142.99 31.3929C143.642 32.6201 144.562 33.5789 145.751 34.2693C146.94 34.9212 148.32 35.2472 149.893 35.2472C151.312 35.2472 152.597 35.0171 153.747 34.5569C154.898 34.0583 155.895 33.3296 156.739 32.3708L161.168 36.8005C159.826 38.3729 158.177 39.5618 156.221 40.3672C154.303 41.1726 152.213 41.5753 149.95 41.5753ZM180.901 41.5753C178.063 41.5753 175.513 40.9425 173.25 39.6769C170.987 38.4113 169.204 36.6854 167.9 34.4994C166.596 32.3133 165.944 29.8588 165.944 27.1358C165.944 24.3745 166.596 21.9008 167.9 19.7148C169.204 17.5287 170.987 15.8029 173.25 14.5373C175.551 13.2333 178.101 12.5813 180.901 12.5813C183.087 12.5813 185.101 12.984 186.942 13.7894C188.782 14.5948 190.374 15.7453 191.716 17.2411L186.884 22.1309C186.155 21.3255 185.273 20.7119 184.238 20.29C183.241 19.8682 182.128 19.6572 180.901 19.6572C179.521 19.6572 178.274 19.9832 177.162 20.6352C176.088 21.2488 175.225 22.1117 174.573 23.2239C173.96 24.2978 173.653 25.5826 173.653 27.0783C173.653 28.5357 173.96 29.8396 174.573 30.9902C175.225 32.1024 176.088 32.9845 177.162 33.6365C178.274 34.2501 179.521 34.5569 180.901 34.5569C182.167 34.5569 183.298 34.346 184.295 33.9241C185.331 33.4639 186.213 32.8119 186.942 31.9682L191.831 36.858C190.412 38.3921 188.782 39.5618 186.942 40.3672C185.101 41.1726 183.087 41.5753 180.901 41.5753ZM196.099 41V13.2141H203.693V41H196.099ZM199.896 8.72697C198.669 8.72697 197.653 8.32428 196.847 7.51889C196.042 6.67515 195.639 5.63965 195.639 4.41239C195.639 3.22349 196.042 2.20717 196.847 1.36343C197.653 0.519688 198.669 0.0978185 199.896 0.0978185C201.162 0.0978185 202.178 0.519688 202.945 1.36343C203.75 2.20717 204.153 3.22349 204.153 4.41239C204.153 5.63965 203.75 6.67515 202.945 7.51889C202.178 8.32428 201.162 8.72697 199.896 8.72697ZM221.989 41.5753C219.458 41.5753 217.176 40.9425 215.144 39.6769C213.111 38.4113 211.519 36.6854 210.369 34.4994C209.218 32.3133 208.643 29.8588 208.643 27.1358C208.643 24.3745 209.218 21.9008 210.369 19.7148C211.519 17.5287 213.111 15.8029 215.144 14.5373C217.176 13.2717 219.458 12.6389 221.989 12.6389C223.984 12.6389 225.767 13.0415 227.339 13.8469C228.912 14.6523 230.158 15.7837 231.079 17.2411C232.038 18.6601 232.555 20.2709 232.632 22.0734V32.0832C232.555 33.9241 232.038 35.554 231.079 36.9731C230.158 38.3921 228.912 39.5235 227.339 40.3672C225.767 41.1726 223.984 41.5753 221.989 41.5753ZM223.37 34.6144C225.479 34.6144 227.186 33.9241 228.49 32.5434C229.794 31.1244 230.446 29.3027 230.446 27.0783C230.446 25.6209 230.139 24.3361 229.526 23.2239C228.95 22.0734 228.126 21.1913 227.052 20.5777C226.016 19.9257 224.789 19.5997 223.37 19.5997C221.989 19.5997 220.762 19.9257 219.688 20.5777C218.653 21.1913 217.828 22.0734 217.215 23.2239C216.639 24.3361 216.352 25.6209 216.352 27.0783C216.352 28.574 216.639 29.8972 217.215 31.0477C217.828 32.1599 218.653 33.042 219.688 33.694C220.762 34.3076 221.989 34.6144 223.37 34.6144ZM230.043 41V33.5214L231.251 26.7331L230.043 20.0599V13.2141H237.522V41H230.043ZM248.273 41V1.65107H255.809V41H248.273ZM241.773 19.8298V13.2141H262.31V19.8298H241.773ZM279.163 41.5753C276.248 41.5753 273.659 40.9616 271.397 39.7344C269.134 38.4688 267.331 36.743 265.989 34.5569C264.685 32.3708 264.033 29.878 264.033 27.0783C264.033 24.317 264.666 21.8625 265.932 19.7148C267.236 17.5287 269 15.8029 271.224 14.5373C273.449 13.2333 275.922 12.5813 278.645 12.5813C281.33 12.5813 283.688 13.195 285.721 14.4222C287.792 15.6111 289.403 17.2602 290.553 19.3696C291.742 21.4406 292.337 23.7992 292.337 26.4455C292.337 26.9441 292.298 27.4618 292.222 27.9987C292.183 28.4973 292.087 29.0726 291.934 29.7246L268.578 29.7821V24.1444L288.425 24.0869L285.376 26.4455C285.299 24.7964 284.992 23.4157 284.455 22.3035C283.957 21.1913 283.209 20.3476 282.212 19.7723C281.253 19.1587 280.064 18.8518 278.645 18.8518C277.149 18.8518 275.846 19.197 274.733 19.8873C273.621 20.5393 272.758 21.4789 272.145 22.7062C271.569 23.8951 271.282 25.3141 271.282 26.9632C271.282 28.6507 271.588 30.1273 272.202 31.3929C272.854 32.6201 273.775 33.5789 274.963 34.2693C276.152 34.9212 277.533 35.2472 279.105 35.2472C280.524 35.2472 281.809 35.0171 282.96 34.5569C284.11 34.0583 285.107 33.3296 285.951 32.3708L290.381 36.8005C289.039 38.3729 287.389 39.5618 285.433 40.3672C283.516 41.1726 281.426 41.5753 279.163 41.5753Z" fill="#00C567"/>
</svg>
