<svg width="16" height="16" viewBox="0 0 16 16" fill="none" xmlns="http://www.w3.org/2000/svg">
<path d="M15.0766 7.45657H14.3459C13.9337 7.45657 13.6004 7.72422 13.6004 8.05375C13.6004 8.38253 13.9337 8.64943 14.3459 8.64943H15.0766C15.4881 8.64943 15.8221 8.38327 15.8221 8.05375C15.8221 7.72496 15.4873 7.45657 15.0766 7.45657ZM8.36673 3.9533C7.82779 3.95163 7.29383 4.05654 6.79558 4.26202C6.29734 4.46749 5.84464 4.76946 5.46355 5.15056C5.08245 5.53166 4.78048 5.98435 4.57501 6.48259C4.36953 6.98084 4.26461 7.5148 4.26629 8.05375C4.26629 10.3284 6.0921 12.1542 8.36673 12.1542C10.6406 12.1542 12.4672 10.3284 12.4672 8.05375C12.4672 5.77912 10.6399 3.9533 8.36673 3.9533ZM8.36673 11.0359C6.71835 11.0359 5.38459 9.70063 5.38459 8.05375C5.38459 6.40537 6.71835 5.0716 8.36673 5.0716C9.15765 5.0716 9.91617 5.38579 10.4754 5.94505C11.0347 6.50431 11.3489 7.26283 11.3489 8.05375C11.3489 8.84466 11.0347 9.60318 10.4754 10.1624C9.91617 10.7217 9.15765 11.0359 8.36673 11.0359ZM3.14798 8.05375C3.14798 7.72496 2.81324 7.45657 2.40245 7.45657H1.65691C1.24463 7.45657 0.911377 7.72422 0.911377 8.05375C0.911377 8.38253 1.24463 8.64943 1.65691 8.64943H2.40245C2.81324 8.64943 3.14798 8.38253 3.14798 8.05375ZM8.36673 2.835C8.69552 2.835 8.96242 2.50174 8.96242 2.08946V1.34392C8.96242 0.931643 8.69552 0.598389 8.36673 0.598389C8.03795 0.598389 7.76956 0.931643 7.76956 1.34392V2.08946C7.76956 2.50174 8.03721 2.835 8.36673 2.835ZM8.36673 13.2725C8.03721 13.2725 7.76956 13.6058 7.76956 14.018V14.7636C7.76956 15.1758 8.03721 15.5091 8.36673 15.5091C8.69552 15.5091 8.96242 15.1758 8.96242 14.7636V14.018C8.96242 13.6058 8.69552 13.2725 8.36673 13.2725ZM13.8576 3.40608C14.1491 3.11457 14.1961 2.68962 13.9635 2.45701C13.7309 2.2244 13.3052 2.27212 13.0152 2.56362L12.4933 3.08475C12.2018 3.37625 12.1548 3.80121 12.3874 4.03382C12.62 4.26642 13.0457 4.21871 13.3365 3.92721L13.8576 3.40608ZM3.39699 12.1788L2.87512 12.7014C2.58361 12.9929 2.53664 13.4164 2.76925 13.649C3.00186 13.8816 3.42756 13.8354 3.71757 13.5439L4.23945 13.0227C4.53095 12.7312 4.57792 12.3063 4.34531 12.0729C4.11271 11.8396 3.68701 11.8888 3.39699 12.1788ZM3.71832 2.56288C3.42756 2.27137 3.00186 2.22366 2.76925 2.45626C2.53664 2.68887 2.58436 3.11457 2.87437 3.40608L3.39625 3.92721C3.68775 4.21871 4.11196 4.26642 4.34457 4.03382C4.57718 3.80121 4.53021 3.37551 4.23945 3.08475L3.71832 2.56288ZM12.4925 13.0235L13.0144 13.5446C13.3059 13.8361 13.7301 13.8823 13.9627 13.6512C14.1953 13.4186 14.1484 12.9929 13.8569 12.7022L13.3357 12.181C13.0442 11.8895 12.6193 11.8418 12.3859 12.0744C12.1526 12.307 12.201 12.732 12.4925 13.0235Z" fill="white"/>
</svg>
