<svg width="16" height="16" viewBox="0 0 16 16" fill="none" xmlns="http://www.w3.org/2000/svg">
<path d="M8.08091 14.7633C8.9779 14.7634 9.8658 14.5836 10.6921 14.2345C11.5184 13.8855 12.2663 13.3744 12.8917 12.7313C13.517 12.0882 14.0071 11.3263 14.3329 10.4906C14.6587 9.65482 14.8136 8.76224 14.7885 7.8656C13.8501 8.51874 12.7232 8.84566 11.581 8.79611C10.4387 8.74656 9.34437 8.32328 8.46608 7.59132C7.58778 6.85937 6.97416 5.85924 6.7195 4.74465C6.46485 3.63006 6.58326 2.46269 7.05654 1.42194C5.38522 1.67949 3.87278 2.55863 2.82182 3.88345C1.77086 5.20827 1.2589 6.88106 1.38836 8.56715C1.51782 10.2532 2.27915 11.8283 3.52004 12.9771C4.76093 14.126 6.38985 14.7639 8.08091 14.7633Z" stroke="black" stroke-width="1.1183" stroke-linecap="round" stroke-linejoin="round"/>
</svg>
