<svg width="82" height="84" viewBox="0 0 82 84" fill="none" xmlns="http://www.w3.org/2000/svg">
<g clip-path="url(#clip0_1_39)">
<rect width="82" height="83.3898" rx="16.678" fill="#00C567" fill-opacity="0.2"/>
<g filter="url(#filter0_d_1_39)">
<g clip-path="url(#clip1_1_39)">
<rect x="14.5933" y="15.288" width="52.8136" height="52.8136" rx="9.94138" fill="#00C567"/>
<path d="M24.8487 44.019L35.9766 55.1468L51.8532 39.2702L58.2322 45.6492V28.9575H41.5405L47.9195 35.3365L35.9766 47.2794L24.8487 36.1516L3.4082 57.5921L7.34189 61.5258L24.8487 44.019Z" fill="white"/>
<path d="M21.6042 48.2972L28.3114 55.0044L37.8809 45.4349L41.7257 49.2798V39.219H31.665L35.5099 43.0639L28.3114 50.2624L21.6042 43.5552L8.68115 56.4783L11.0521 58.8493L21.6042 48.2972Z" fill="#005271"/>
</g>
</g>
</g>
<defs>
<filter id="filter0_d_1_39" x="-0.00813389" y="3.1719" width="82.0164" height="82.0164" filterUnits="userSpaceOnUse" color-interpolation-filters="sRGB">
<feFlood flood-opacity="0" result="BackgroundImageFix"/>
<feColorMatrix in="SourceAlpha" type="matrix" values="0 0 0 0 0 0 0 0 0 0 0 0 0 0 0 0 0 0 127 0" result="hardAlpha"/>
<feOffset dy="2.48534"/>
<feGaussianBlur stdDeviation="7.3007"/>
<feComposite in2="hardAlpha" operator="out"/>
<feColorMatrix type="matrix" values="0 0 0 0 0 0 0 0 0 0 0 0 0 0 0 0 0 0 0.25 0"/>
<feBlend mode="normal" in2="BackgroundImageFix" result="effect1_dropShadow_1_39"/>
<feBlend mode="normal" in="SourceGraphic" in2="effect1_dropShadow_1_39" result="shape"/>
</filter>
<clipPath id="clip0_1_39">
<rect width="82" height="83.3898" rx="16.678" fill="white"/>
</clipPath>
<clipPath id="clip1_1_39">
<rect x="14.5933" y="15.288" width="52.8136" height="52.8136" rx="9.94138" fill="white"/>
</clipPath>
</defs>
</svg>
